<svg xmlns="http://www.w3.org/2000/svg" xmlns:xlink="http://www.w3.org/1999/xlink" viewBox="0 0 568.06 232.8"><defs><style>.cls-1{isolation:isolate;}.cls-2{fill:url(#linear-gradient);}.cls-3{fill:#fec25c;mix-blend-mode:overlay;}.cls-4{fill:#a265a9;}.cls-5{fill:#77459b;}.cls-6{fill:#603a96;}.cls-7{fill:#341a6e;}</style><linearGradient id="linear-gradient" x1="284.6" y1="161.44" x2="284.6" y2="-18.38" gradientTransform="translate(0 23.8) scale(1 1.29)" gradientUnits="userSpaceOnUse"><stop offset="0.03" stop-color="#ffd97e"/><stop offset="0.29" stop-color="#faac65"/><stop offset="0.92" stop-color="#f5a4c7"/></linearGradient></defs><g class="cls-1"><g id="Layer_2" data-name="Layer 2"><g id="Layer_1-2" data-name="Layer 1"><rect class="cls-2" x="1.13" width="566.93" height="232.8"/><path class="cls-3" d="M243.16,136a10.7,10.7,0,1,1-10.7-10.7A10.7,10.7,0,0,1,243.16,136Z"/><polygon class="cls-4" points="253.92 164.71 253.92 157.84 248.55 157.84 248.55 153.03 243.38 153.03 243.38 157.84 236.84 157.84 236.84 221.64 251.96 221.64 253.92 221.64 257.65 221.64 257.65 164.71 253.92 164.71"/><polygon class="cls-4" points="442.52 158.62 442.52 158.12 430.61 158.12 430.61 158.62 425.52 158.62 425.52 221.64 447.6 221.64 447.6 158.62 442.52 158.62"/><polygon class="cls-5" points="305.81 155.43 305.81 154.29 298.94 154.29 298.94 155.43 296.64 155.43 296.64 221.64 312.18 221.64 312.18 155.43 305.81 155.43"/><polygon class="cls-4" points="220.8 173.76 220.8 173.14 208.01 173.14 208.01 172.62 190.1 172.62 190.1 173.76 167.08 173.76 167.08 221.64 230.47 221.64 230.47 173.76 220.8 173.76"/><polygon class="cls-4" points="398.62 161.97 398.62 159.89 393.88 159.89 393.88 161.97 388.93 161.97 388.93 159.89 384.19 159.89 384.19 161.97 368.46 161.97 368.46 221.64 417.29 221.64 417.29 161.97 398.62 161.97"/><polygon class="cls-4" points="81.48 168.84 81.48 163.68 80.42 163.68 80.42 168.84 79.53 168.84 79.53 168.04 77.92 168.04 77.92 168.84 76.33 168.84 76.33 167.24 73.66 167.24 73.66 168.84 68.86 168.84 68.86 221.64 91.97 221.64 91.97 168.84 81.48 168.84"/><polygon class="cls-5" points="396.69 179.25 396.69 168.49 395.77 168.49 395.77 167.62 391.74 167.62 391.74 168.49 384.03 168.49 384.03 167.62 380.01 167.62 380.01 168.49 379.08 168.49 379.08 221.64 394.6 221.64 396.69 221.64 407.31 221.64 407.31 179.25 396.69 179.25"/><polygon class="cls-4" points="541.53 167.3 541.53 166.33 544.5 166.33 544.5 165.02 514.99 165.02 514.99 166.33 520 166.33 520 167.3 513.96 167.3 513.96 221.64 545.29 221.64 545.29 167.3 541.53 167.3"/><rect class="cls-4" x="12.67" y="195.1" width="15.36" height="26.54"/><rect class="cls-5" x="531.71" y="202" width="19.76" height="19.64"/><polygon class="cls-5" points="339.41 147.28 339.41 145.83 336.73 145.83 336.73 145.18 335.74 145.18 335.74 145.83 332.08 145.83 332.08 147.28 329.22 147.28 329.22 151.89 326.18 151.89 326.18 221.64 349.6 221.64 349.6 153.6 349.6 151.89 349.6 147.28 339.41 147.28"/><polygon class="cls-5" points="479.42 161.81 479.42 155.37 512.24 155.37 512.24 161.81 515.02 161.81 515.02 221.64 478.79 221.64 478.79 161.81 479.42 161.81"/><polygon class="cls-5" points="64.76 148.51 64.76 143.25 58.91 143.25 58.91 148.51 52.64 148.51 52.64 221.64 72.31 221.64 72.31 148.51 64.76 148.51"/><path class="cls-6" d="M295.41,221.64V110.22c0-.73-3-.77-3,0v.37a14.33,14.33,0,0,0-5.56-1.88v-.54h-3.71v-5.58h.1a.39.39,0,1,0,0-.78h-.1v-1h.1a.4.4,0,1,0,0-.79h-.1V99h.1a.4.4,0,1,0,0-.79h-.1v-1h.1a.4.4,0,1,0,0-.79h-.1v-1h.1a.39.39,0,1,0,0-.78h-.1v-1h.1a.4.4,0,1,0,0-.79h-.1v-1h.1a.4.4,0,1,0,0-.79h-.1V82.71a.38.38,0,1,0-.75,0V91h-.1a.4.4,0,1,0,0,.79h.1v1h-.1a.4.4,0,1,0,0,.79h.1v1h-.1a.39.39,0,1,0,0,.78h.1v1h-.1a.4.4,0,1,0,0,.79h.1v1h-.1a.4.4,0,1,0,0,.79h.1v1h-.1a.4.4,0,1,0,0,.79h.1v1h-.1a.39.39,0,1,0,0,.78h.1v5.58h-3.71v.54c-4.18.65-7.15,2.28-7.15,4.18V221.64Z"/><polygon class="cls-6" points="431.33 115.49 431.33 112.2 428.92 112.2 428.92 107.26 424.73 107.26 424.73 104.01 422.62 104.01 422.62 99.21 421.54 99.21 421.54 97.88 420.67 97.88 420.67 96.63 419.91 96.63 419.91 94.45 418.99 94.45 418.99 96.63 418.24 96.63 418.24 97.88 417.37 97.88 417.37 99.21 416.29 99.21 416.29 104.01 414.18 104.01 414.18 107.26 409.99 107.26 409.99 112.2 407.58 112.2 407.58 115.49 402.9 115.49 402.9 221.64 436.01 221.64 436.01 115.49 431.33 115.49"/><polygon class="cls-7" points="275.9 155.81 275.9 141.89 275.47 141.89 275.47 135.88 275.47 135.88 274.1 132.52 273.79 132.52 272.16 128.5 271.69 128.5 269.02 122.37 268.81 122.37 267.74 119.06 267.48 119.06 267.48 116.63 267.48 116.63 267.08 115.39 267.08 111.79 267.08 111.79 266.77 110.59 266.46 111.79 266.46 115.39 266.06 116.63 266.06 119.06 265.79 119.06 264.73 122.37 264.52 122.37 261.85 128.5 261.38 128.5 259.75 132.52 259.43 132.52 258.07 135.88 258.07 141.89 257.64 141.89 257.64 155.81 257.3 155.81 257.3 221.64 276.23 221.64 276.23 155.81 275.9 155.81"/><polygon class="cls-6" points="376.67 198.78 376.67 179.43 371.4 179.43 371.4 160.09 366.12 160.09 366.12 140.74 360.85 140.74 360.85 135.46 344.56 135.46 344.56 221.64 381.95 221.64 381.95 198.78 376.67 198.78"/><path class="cls-6" d="M360.51,74.23a2.91,2.91,0,0,1,2.16-.2c.29,0,1.94.58,3.73,1.18a.38.38,0,0,1,0-.15.42.42,0,0,1,.51-.3l1,.29,1.21-.27a.42.42,0,0,1,.48-.6l1,.27,3.62-.79h.23l.85.18-6,2.35,2.13.72c.45.16.6.09.6.09l2.87-1.81.23,0,.84.36-1.31,1.9,1.26-.25,1.26.12-2.37,1.11.29.18-.08.26h-.74l-.39,1-1-.42-.34-.74h-.14a20,20,0,0,1-4.85-.71l-.24-.09-.93,2.66-1-.32-.18-.46h0l-1.3-.36a.41.41,0,1,1,.22-.8l.72.19-.11-.29-1.19-.32a.42.42,0,0,1,.22-.81l.59.16v0l-.64-1.1c-.79-.31-1.43-.57-1.62-.63a6.21,6.21,0,0,1-1.95-1C360,74.6,360,74.4,360.51,74.23Z"/><path class="cls-5" d="M31.41,171.62a9.47,9.47,0,0,1-4.6-1.64h-4.1v2H16.84v49.63H35V171.81A33.06,33.06,0,0,1,31.41,171.62Z"/><path class="cls-6" d="M52,157.23v-1h-4v1H44.42V155.7h-.85v-1.34h0c-.23-.83-1.41-1.52-3-1.8v-.28H30.62l.52,1.33h.33v3.62h-.85v64.41H52.73V157.23Z"/><polygon class="cls-4" points="135.83 173.2 135.83 171.42 128.15 171.42 128.15 170.06 123.03 170.06 123.03 171.42 107.15 171.42 107.15 173.2 97.01 173.2 97.01 221.64 139.21 221.64 139.21 173.2 135.83 173.2"/><path class="cls-7" d="M327.8,154.61V153.5l-.2-.85v-1.57h-.89v-1.82l-.47-2-.46,2v.12h-.28v-3.63h-1.07l-4.19-7.61h0v-.63h-.18v-3h.12v-.63l-.94-3.39-.94,3.39v.63h.13v3h-.18v.63h0l-4.18,7.61h-1.07v3.63h-.29v-.12l-.46-2-.46,2v1.82H311v1.57l-.2.85v1.11h-.53v67h18.11v-67ZM319,134.92a.3.3,0,0,1,.32-.28.31.31,0,0,1,.33.28V137a.31.31,0,0,1-.33.28A.3.3,0,0,1,319,137Z"/><polygon class="cls-7" points="299.55 168.84 299.55 158.39 298.68 158.39 298.68 153.99 297.8 153.99 297.8 151.27 296.72 151.27 296.72 148.97 296.31 148.97 292.64 143.43 288.97 148.97 288.55 148.97 288.55 151.27 287.48 151.27 287.48 153.99 286.6 153.99 286.6 158.39 285.72 158.39 285.72 168.84 284.6 168.84 284.6 221.64 300.68 221.64 300.68 168.84 299.55 168.84"/><polygon class="cls-5" points="103.87 163.14 103.87 156.08 98.35 156.08 98.35 151.14 93.04 151.14 93.04 156.08 86.32 156.08 86.32 221.64 101.85 221.64 103.87 221.64 107.7 221.64 107.7 163.14 103.87 163.14"/><path class="cls-6" d="M481,206.83v-67h-1.67v-3.19h-.5a1.23,1.23,0,0,0,0-.2.93.93,0,0,0-.93-.93.9.9,0,0,0-.74.37v-.62h-.7v-1h.42V134h-.23v-.35h-.13v-3.16h.23V130h-.23v-.5h.14v-.46h.16v-.34h-.55a.45.45,0,0,0,.19-.38.48.48,0,1,0-.77.38h-.55v.07H475v-.07h-1.68v.07h-.15v-.07h-1.69v.07h-.15v-.07h-.55a.48.48,0,1,0-.77-.38.45.45,0,0,0,.19.38h-.55v.34h.16v.46H470v.5h-.23v.45H470v3.16h-.13V134h-.23v.32H470v1h-.7v.62a.9.9,0,0,0-.74-.37.93.93,0,0,0-.93.93,1.23,1.23,0,0,0,0,.2h-.51v3.19h-1.66v1.46h-9.37v-1.46h-1.67v-3.19h-.51a1.23,1.23,0,0,0,0-.2.93.93,0,0,0-.93-.93.91.91,0,0,0-.74.37v-.62h-.69v-1H452V134h-.22v-.35h-.14v-3.16h.23V130h-.23v-.5h.14v-.46H452v-.34h-.56a.46.46,0,0,0,.2-.38.49.49,0,0,0-1,0,.46.46,0,0,0,.2.38h-.56v.07h-.15v-.07h-1.68v.07h-.15v-.07h-1.68v.07h-.16v-.07h-.55a.45.45,0,0,0,.19-.38.47.47,0,0,0-.48-.48.48.48,0,0,0-.48.48.46.46,0,0,0,.2.38h-.56v.34h.16v.46h.15v.5h-.23v.45h.23v3.16h-.14V134h-.22v.32h.41v1h-.69v.62a.91.91,0,0,0-.74-.37.94.94,0,0,0-.94.93.64.64,0,0,0,0,.2h-.51v3.19h-1.67v67h-1v14.81H482V206.83Zm-33-77.31h.15v-.25h.47v.25h.15v.5h-.24v.16h-.3V130H448Zm-1.07,4.11h-.13V134h-.5v-.35h-.13v-2.18h.76Zm0-3.61h-.23v.16h-.3V130h-.23v-.5h.14v-.25h.48v.25h.14Zm2,3.61h-.29V134h-.49v-.35h-.3v-2.35h0a.54.54,0,0,1,.53-.47.53.53,0,0,1,.53.47h0Zm1.68,0h-.14V134H450v-.35h-.13v-2.18h.76Zm0-3.61h-.23v.16h-.3V130h-.23v-.5H450v-.25h.47v.25h.15Zm22.28-.5H473v-.25h.48v.25h.14v.5h-.23v.16h-.3V130h-.23Zm-1.07,4.11h-.14V134h-.49v-.35H471v-2.18h.77Zm0-3.61h-.23v.16h-.3V130H471v-.5h.15v-.25h.47v.25h.15Zm2,3.61h-.29V134H473v-.35h-.29v-2.35h0a.53.53,0,0,1,1.06,0h0Zm1.68,0h-.14V134h-.49v-.35h-.14v-2.18h.77Zm0-3.61h-.24v.16h-.3V130h-.23v-.5h.15v-.25h.47v.25h.15Z"/><polygon class="cls-5" points="155.56 221.64 155.56 160.37 150.25 160.37 150.25 155.19 144.8 155.19 144.8 160.37 139.5 160.37 139.5 170.62 135.11 170.62 135.11 165.33 129.67 165.33 129.67 221.64 155.56 221.64"/><path class="cls-6" d="M130.87,185.41a1.65,1.65,0,0,0-1.1-1.74c.11-1.11.16-2.23.16-3.36,0-.31,0-.62,0-.93a1.68,1.68,0,0,0,.88-1.68,1.7,1.7,0,0,0-1.09-1.4,36.23,36.23,0,0,0-.82-4.58,1.73,1.73,0,0,0,.25-1.56,1.79,1.79,0,0,0-1-1,36.56,36.56,0,0,0-2-4.83,2,2,0,0,0,0-.49,1.81,1.81,0,0,0-.23-.65,1.84,1.84,0,0,0-.77-.7,36,36,0,0,0-3.55-5.07,1.67,1.67,0,0,0-.28-.43,1.64,1.64,0,0,0-.32-.27,35.78,35.78,0,0,0-54.16.47,1.69,1.69,0,0,0-.36.3,1.59,1.59,0,0,0-.31.51A36.2,36.2,0,0,0,62.79,163a1.69,1.69,0,0,0-.78.72,1.72,1.72,0,0,0-.19,1.18,35.18,35.18,0,0,0-1.89,4.82,1.65,1.65,0,0,0-1,1.07,1.67,1.67,0,0,0,.11,1.32,1.2,1.2,0,0,0,.18.26,36.24,36.24,0,0,0-.73,4.55,1.7,1.7,0,0,0-1.1,1.44,1.67,1.67,0,0,0,1,1.68c0,.09,0,.18,0,.27a37.51,37.51,0,0,0,.22,4,1.68,1.68,0,0,0,.52,3.26,34.75,34.75,0,0,0,1,3.95,1.68,1.68,0,0,0,1.15,3.15l0,0a34.68,34.68,0,0,0,1.82,3.6l-.19.07a1.62,1.62,0,0,0-.8,1,1.83,1.83,0,0,0,0,.66,1.66,1.66,0,0,0,.24.65,1.74,1.74,0,0,0,1,.81,1.61,1.61,0,0,0,1.26-.23,1.79,1.79,0,0,0,.26-.2,35.63,35.63,0,0,0,2.55,3.19,2,2,0,0,0-.41.25,1.61,1.61,0,0,0-.58,1.14,1.76,1.76,0,0,0,.46,1.24,1.64,1.64,0,0,0,1.2.56,1.62,1.62,0,0,0,1.19-.47,1.68,1.68,0,0,0,.32-.48,38,38,0,0,0,3.24,2.7,1.66,1.66,0,0,0-.55.45,1.68,1.68,0,1,0,2.73,1.95,1.67,1.67,0,0,0,.25-.76,34.74,34.74,0,0,0,3.85,2.07,1.72,1.72,0,0,0-.59.66,1.68,1.68,0,1,0,3.07,1.34,1.69,1.69,0,0,0,.07-.94A35.08,35.08,0,0,0,86,215.19a1.7,1.7,0,0,0-.54.87,1.63,1.63,0,0,0,.2,1.26,1.75,1.75,0,0,0,1.1.73,1.69,1.69,0,0,0,1.31-.25,1.61,1.61,0,0,0,.68-1.08,1.7,1.7,0,0,0-.18-1,36.1,36.1,0,0,0,4.57.41,1.73,1.73,0,0,0-.39,1,1.68,1.68,0,1,0,3.36,0,1.79,1.79,0,0,0-.4-1,37.91,37.91,0,0,0,4.55-.49,1.79,1.79,0,0,0-.16,1,1.68,1.68,0,1,0,2.73-1.58,34.38,34.38,0,0,0,4.28-1.36,1.71,1.71,0,0,0,.09.94,1.64,1.64,0,0,0,2.23.85,1.79,1.79,0,0,0,.91-1,1.57,1.57,0,0,0-.09-1.27,1.6,1.6,0,0,0-.61-.65,37.17,37.17,0,0,0,3.81-2.13,1.69,1.69,0,0,0,.26.73,1.68,1.68,0,1,0,2.7-2,1.62,1.62,0,0,0-.55-.43,36.37,36.37,0,0,0,3.19-2.75,1.78,1.78,0,0,0,.33.46,1.68,1.68,0,1,0,2.22-2.51,1.8,1.8,0,0,0-.4-.23,35.69,35.69,0,0,0,2.49-3.24l.24.19a1.65,1.65,0,0,0,2.31-.62,1.82,1.82,0,0,0,.17-1.32,1.66,1.66,0,0,0-.82-1l-.17-.06a35.91,35.91,0,0,0,1.76-3.64h0a1.69,1.69,0,0,0,2-2.41,1.57,1.57,0,0,0-.88-.74,35,35,0,0,0,1-4A1.65,1.65,0,0,0,130.87,185.41Zm-2.57,1.21a33.14,33.14,0,0,1-.79,3.34l-7.76-2.34a26,26,0,0,0,.88-4.52l7.69.76a1.7,1.7,0,0,0-.75,1.24A1.65,1.65,0,0,0,128.3,186.62ZM127,191a1.77,1.77,0,0,0-.79.95,1.73,1.73,0,0,0,.16,1.34c-.42,1-.88,2-1.39,3l-7.12-3.81a25.84,25.84,0,0,0,1.77-4.31l7.74,2.34-.12.37Zm-3.59,7.39a1.78,1.78,0,0,0-.21.9,32,32,0,0,1-2,2.67l-6.22-5.1a26.11,26.11,0,0,0,2.55-3.84l7.11,3.81c-.16.3-.33.58-.5.88A1.52,1.52,0,0,0,123.37,198.41Zm-61.09-5.86a1.66,1.66,0,0,0-1-1l-.33-1,7.75-2.34a25.84,25.84,0,0,0,1.77,4.31l-7.12,3.81c-.42-.81-.81-1.63-1.17-2.47A1.63,1.63,0,0,0,62.28,192.55Zm-1.52-6.85a1.65,1.65,0,0,0-1.15-1.4c0-.14,0-.27,0-.4l8.07-.8a26,26,0,0,0,.88,4.52L60.76,190c-.26-.89-.49-1.81-.68-2.74A1.62,1.62,0,0,0,60.76,185.7Zm1.68-19.83a1.64,1.64,0,0,0,.22.14,1.69,1.69,0,0,0,1.26.11,1.59,1.59,0,0,0,1-.77,1.76,1.76,0,0,0,.16-.4l5.51,3a26.51,26.51,0,0,0-1.8,4.28L61.53,170a1.44,1.44,0,0,0-.48-.28l-.08,0A36.55,36.55,0,0,1,62.44,165.87Zm4.21-6.05a1.7,1.7,0,0,0,2.15,0l4.61,3.78a26.56,26.56,0,0,0-2.57,3.79l-5.76-3.09a1.7,1.7,0,0,0-.77-1.18,1.24,1.24,0,0,0-.37-.17,36.78,36.78,0,0,1,2.33-3.55A1.74,1.74,0,0,0,66.65,159.82Zm53.36-.11a1.68,1.68,0,0,0,1.2-.38,1.52,1.52,0,0,0,.38-.47,34.26,34.26,0,0,1,2.42,3.52,1.59,1.59,0,0,0-.4.18,1.75,1.75,0,0,0-.72,1,1.79,1.79,0,0,0,0,.83l-5.49,2.94a27.36,27.36,0,0,0-2.56-3.79l4.79-3.93A1.51,1.51,0,0,0,120,159.71Zm3.49,5.59a1.68,1.68,0,0,0,.55.28,1.77,1.77,0,0,0,1.27-.13l.24-.16a34.88,34.88,0,0,1,1.53,3.79l-.1,0a1.71,1.71,0,0,0-1,1.11l-6.48,2a26.47,26.47,0,0,0-1.79-4.28l5.47-2.93A1.44,1.44,0,0,0,123.5,165.3Zm5.19,11a2,2,0,0,0-.44.21l-7.65.76a27,27,0,0,0-.92-4.5l6.23-1.88a1.4,1.4,0,0,0,.08.34,1.68,1.68,0,0,0,2,1.09A37.16,37.16,0,0,1,128.69,176.28Zm.22,3.89c0,1.06,0,2.1-.15,3.13l-8.08-.8c.06-.72.1-1.45.1-2.19s0-1.65-.12-2.46l7-.69a1.58,1.58,0,0,0-.16.91,1.67,1.67,0,0,0,1.39,1.45C128.89,179.74,128.91,180,128.91,180.17Zm-60.62.14c0-.8,0-1.59.11-2.38l9.24.92c0,.48-.07,1-.07,1.46s0,.8.05,1.2l-9.24.91C68.33,181.73,68.29,181,68.29,180.31Zm41.6,0c0,.38,0,.75,0,1.12L97.2,180.17l12.63-1.25C109.87,179.38,109.89,179.85,109.89,180.31ZM109.8,182a16.29,16.29,0,0,1-.46,2.43l-12.16-3.68Zm-12.62-2.46,12.08-3.66a14.94,14.94,0,0,1,.5,2.41ZM110,175.68l8.88-2.69a24.93,24.93,0,0,1,.89,4.34l-9.24.91A16.85,16.85,0,0,0,110,175.68Zm-.18-.58a17,17,0,0,0-1-2.44l8.18-4.38a25.56,25.56,0,0,1,1.74,4.13Zm-.77.23L97,179l11.14-6A15.42,15.42,0,0,1,109.08,175.33Zm-12.37,3.12,9.73-8a15.09,15.09,0,0,1,1.38,2ZM96.3,178l8-9.73q.51.42,1,.9c.27.27.52.55.77.84Zm-.44-.4,5.92-11.07a16.08,16.08,0,0,1,2,1.36Zm-.55-.26,3.64-12a15.29,15.29,0,0,1,2.29.94Zm-.57-.21L96,164.66a15.93,15.93,0,0,1,2.4.48Zm-.61,0-1.24-12.49c.41,0,.82-.06,1.24-.06s.83,0,1.24.06Zm-.6,0-3.64-12a15.93,15.93,0,0,1,2.4-.48Zm-.57.21L87,166.25a15.74,15.74,0,0,1,2.29-.94Zm-.55.26-8-9.71a14.77,14.77,0,0,1,2-1.36ZM92,178l-9.75-8q.38-.44.78-.84a12,12,0,0,1,1-.9Zm-.41.45-11.1-5.94a14.15,14.15,0,0,1,1.37-2Zm-.25.55-12.12-3.67a15.47,15.47,0,0,1,1-2.29Zm-12.93,1.31c0-.46,0-.93.07-1.39l12.62,1.25-12.65,1.26C78.39,181.06,78.37,180.69,78.37,180.31Zm.13-2a16.1,16.1,0,0,1,.5-2.41l12.09,3.66Zm-.09-3.22-8.88-2.69a25.52,25.52,0,0,1,1.73-4.13l8.19,4.38A17,17,0,0,0,78.41,175.1Zm-.17.58a15.5,15.5,0,0,0-.53,2.56l-9.24-.91a25.87,25.87,0,0,1,.88-4.34Zm-.57,6.43a16.8,16.8,0,0,0,.49,2.58l-8.88,2.7a26.18,26.18,0,0,1-.85-4.37Zm.8-.08,12.62-1.25-12.16,3.68A15.11,15.11,0,0,1,78.47,182Zm12.83-.68-11.26,6a16.47,16.47,0,0,1-1-2.33Zm.25.55L81.69,190a15.14,15.14,0,0,1-1.37-2.07Zm.41.45-8.12,9.9c-.29-.26-.58-.52-.85-.79s-.63-.66-.92-1Zm.18.73-.17.5L86.37,194a15.89,15.89,0,0,1-2.06-1.4Zm-1.51,4.27L88,194.83c-.37-.15-.73-.33-1.08-.51Zm1.22,1.39,1.48-4.16v.67L92.26,196a15.28,15.28,0,0,1-2.44-.49Zm1.48,2.65v4.66c-.16,0-.31,0-.46,0Zm1.61,0L95.4,196l-.46,0Zm0-6.14v-.67l1.47,4.18,2,6.71A15.4,15.4,0,0,1,96,196Zm2.69,2.1,3.73,7c-.36.18-.72.36-1.09.51Zm-1.34-3.77-.17-.51,7.84,9.56a15.34,15.34,0,0,1-2.07,1.4Zm0-1.24,9.89,8.11c-.29.35-.59.69-.91,1s-.57.53-.86.79Zm.41-.44,11.23,6a15.14,15.14,0,0,1-1.37,2.07Zm.26-.55,12.2,3.69a14.4,14.4,0,0,1-1,2.33Zm13,3.92,8.88,2.7a24.75,24.75,0,0,1-1.71,4.16l-8.18-4.38A16.31,16.31,0,0,0,109.94,185.27Zm.16-.58a15.68,15.68,0,0,0,.49-2.58l9.24.91a25.19,25.19,0,0,1-.84,4.37Zm.55-3.18c0-.4,0-.79,0-1.2a14.13,14.13,0,0,0-.07-1.46l9.24-.92c.07.79.12,1.58.12,2.38s0,1.42-.1,2.11Zm6.06-13.76-8.19,4.38a16.69,16.69,0,0,0-1.46-2.16l7.18-5.89A26.17,26.17,0,0,1,116.71,167.75Zm-10,1.75a17.29,17.29,0,0,0-1.88-1.85l5.89-7.18c.6.5,1.18,1,1.73,1.57s1,1,1.44,1.58Zm-2.35-2.23a15.13,15.13,0,0,0-2.17-1.44l4.39-8.19a25.76,25.76,0,0,1,3.67,2.45Zm-2.7-1.72a15.85,15.85,0,0,0-2.44-1l2.69-8.89a25.82,25.82,0,0,1,4.13,1.71Zm-3-1.18a16.43,16.43,0,0,0-2.55-.5l.91-9.24a25.52,25.52,0,0,1,4.33.85Zm-3.15-.56c-.44,0-.87-.06-1.32-.06s-.88,0-1.31.06l-.92-9.24c.74-.06,1.48-.1,2.23-.1s1.5,0,2.23.1Zm-3.24.06a16.66,16.66,0,0,0-2.55.5L87,155.48a25.72,25.72,0,0,1,4.33-.85Zm-3.13.67a15.74,15.74,0,0,0-2.43,1l-4.39-8.19a26.21,26.21,0,0,1,4.13-1.71Zm-3,1.29a15.7,15.7,0,0,0-2.17,1.44l-5.88-7.18a25.21,25.21,0,0,1,3.67-2.45Zm-2.64,1.82a18.24,18.24,0,0,0-1.88,1.85l-7.18-5.88c.47-.55.94-1.07,1.45-1.58S77,161,77.58,160.47ZM81.21,170a15.81,15.81,0,0,0-1.47,2.16l-8.19-4.38A25.4,25.4,0,0,1,74,164.08ZM61.3,172.74a1.63,1.63,0,0,0,.78-2l6.5,2a28,28,0,0,0-.91,4.5l-8.11-.8a33.73,33.73,0,0,1,.57-3.53A1.73,1.73,0,0,0,61.3,172.74Zm-1.94,7.4a1.65,1.65,0,0,0,.53-3l7.72.76q-.12,1.22-.12,2.46c0,.74,0,1.47.1,2.19l-8.09.8c-.09-1-.14-2.07-.14-3.13ZM69.44,188l8.89-2.7a16.31,16.31,0,0,0,1,2.48l-8.19,4.38A26.54,26.54,0,0,1,69.44,188Zm10.18.32a16.07,16.07,0,0,0,1.45,2.2l-7.18,5.89a25.66,25.66,0,0,1-2.46-3.71ZM81.45,191a17.93,17.93,0,0,0,1.89,1.91l-5.89,7.18c-.55-.47-1.08-1-1.59-1.46s-1.08-1.14-1.59-1.74Zm2.35,2.29a16.65,16.65,0,0,0,2.2,1.49l-4.39,8.18a25.65,25.65,0,0,1-3.69-2.49ZM86.53,195a13.17,13.17,0,0,0,1.2.57l-3.1,8.76a26.56,26.56,0,0,1-2.48-1.14Zm.9,6.26L86.31,205l-.16-.06Zm2.16-5a16.85,16.85,0,0,0,2.6.52L91.27,206a26.55,26.55,0,0,1-4.38-.88Zm3.2.57a4.9,4.9,0,0,0,.54,0v9.29c-.49,0-1,0-1.46-.09Zm2.15,0a4.9,4.9,0,0,0,.54,0l.91,9.24c-.48,0-1,.07-1.45.09Zm1.14-.09a17.1,17.1,0,0,0,2.6-.52l2.69,8.88A26.14,26.14,0,0,1,97,206Zm4.76,4.53,1.28,3.6L102,205Zm-.3-5.7c.41-.17.8-.36,1.2-.57l4.38,8.19q-1.22.63-2.49,1.14Zm1.73-.85a17.23,17.23,0,0,0,2.19-1.49l5.89,7.18a25.75,25.75,0,0,1-3.7,2.49Zm2.66-1.87a16.15,16.15,0,0,0,1.88-1.91l7.18,5.89c-.5.6-1,1.18-1.58,1.74s-1,1-1.6,1.46Zm2.26-2.38a17.13,17.13,0,0,0,1.46-2.2l8.19,4.38a26.58,26.58,0,0,1-2.47,3.71Zm11.53-34.9c.29.29.57.58.85.88a1.66,1.66,0,0,0-1.11,1.56,1.71,1.71,0,0,0,.43,1.16,1.29,1.29,0,0,0,.17.16l-4.59,3.76a27.29,27.29,0,0,0-3.28-3.26l4.35-5.31a1.61,1.61,0,0,0,.39-.35,1.3,1.3,0,0,0,.23-.41l.25-.3C117.21,154.15,118,154.85,118.72,155.59Zm-4.76-4a1.52,1.52,0,0,0-.76.62,1.69,1.69,0,0,0,.43,2.29,1.67,1.67,0,0,0,.88.31l-3.79,4.63a26.58,26.58,0,0,0-3.81-2.54l3.9-7.28A33.94,33.94,0,0,1,114,151.62ZM107.45,148a1.63,1.63,0,0,0-.83.88,1.73,1.73,0,0,0,.9,2.16,1.71,1.71,0,0,0,2.18-.82,1.58,1.58,0,0,0,.1-1.13l.47.24-3.89,7.28a26.35,26.35,0,0,0-4.28-1.76l2.4-7.92C105.5,147.29,106.49,147.64,107.45,148Zm-7.23-2.1,0,0a1.56,1.56,0,0,0-.68,1.08,1.69,1.69,0,0,0,.29,1.23,1.72,1.72,0,0,0,1,.68,1.59,1.59,0,0,0,1.22-.23,1.72,1.72,0,0,0,.75-1,1.62,1.62,0,0,0-.21-1.27h0c.45.11.9.23,1.34.36l-2.4,7.92a26.32,26.32,0,0,0-4.48-.89l.82-8.23C98.66,145.68,99.44,145.8,100.22,145.94Zm-7.56-.5a1.55,1.55,0,0,0-.52,1.26,1.68,1.68,0,0,0,3.35,0,1.51,1.51,0,0,0-.53-1.24c.77,0,1.54.05,2.3.12l-.82,8.24c-.76-.07-1.53-.11-2.31-.11s-1.55,0-2.31.11L91,145.54C91.55,145.49,92.11,145.46,92.66,145.44Zm-7.61,1.17a1.58,1.58,0,0,0-.19,1.26,1.68,1.68,0,0,0,3.28-.73,1.55,1.55,0,0,0-.75-1.08c1-.2,2-.35,3-.46l.81,8.23a26.52,26.52,0,0,0-4.48.89l-2.4-7.92Zm1.11,8.28a26.25,26.25,0,0,0-4.27,1.76l-2.82-5.25a1.6,1.6,0,0,0,1.12-.08,1.71,1.71,0,0,0,.86-2.17,1.57,1.57,0,0,0-.81-.85A35.39,35.39,0,0,1,83.76,147Zm-4.81,2a27,27,0,0,0-3.8,2.54L73.91,155l.24-.14a1.71,1.71,0,0,0,.38-2.3,1.52,1.52,0,0,0-.75-.6,34.19,34.19,0,0,1,3.68-2.34Zm-11.81-1.34c.63-.63,1.29-1.22,2-1.8a1.51,1.51,0,0,0,.34.8,1.69,1.69,0,0,0,1.43.61l3.81,4.65a26.66,26.66,0,0,0-3.29,3.26l-4.61-3.78a1.73,1.73,0,0,0-.31-2,1.55,1.55,0,0,0-.6-.36C68.68,156.48,69.11,156,69.54,155.59Zm-4.13,44.18a1.52,1.52,0,0,0-.22-.83,1.72,1.72,0,0,0-.75-.66c-.29-.47-.56-.95-.83-1.43l7.11-3.8a27.41,27.41,0,0,0,2.55,3.83L67.05,202C66.47,201.27,65.93,200.53,65.41,199.77Zm4.13,5-.13-.14,0,0s0,0-.07-.06c-.65-.67-1.28-1.35-1.88-2.07l6.22-5.1a26.38,26.38,0,0,0,3.29,3.31l-5.09,6.21C71.05,206.2,70.28,205.5,69.54,204.76Zm2.78,2.49,5.09-6.2a25.67,25.67,0,0,0,3.83,2.58l-3.78,7.06A34.38,34.38,0,0,1,72.32,207.25Zm9.45-3.33c.84.43,1.71.83,2.6,1.18l-2.67,7.55A35.31,35.31,0,0,1,78,211Zm1.45,9.27,2.66-7.54.2.07-2.32,7.65Zm1.12.36,2.32-7.66a27.11,27.11,0,0,0,4.53.9l-.78,8A34.69,34.69,0,0,1,84.34,213.55Zm7.45-6.7c.51,0,1,.07,1.54.09v8c-.78,0-1.56-.07-2.32-.14Zm3.15,8.09v-8l1.53-.09.79,8C96.49,214.87,95.72,214.92,94.94,214.94Zm2.92-.19-.79-8a26.91,26.91,0,0,0,4.53-.9l2.32,7.66A34.58,34.58,0,0,1,97.86,214.75Zm6.64-1.38-2.32-7.65.2-.07,2.66,7.54Zm2.06-.72-2.66-7.55c.89-.35,1.76-.75,2.6-1.18l3.77,7.06A33.55,33.55,0,0,1,106.56,212.65Zm4.25-2L107,203.63a26.75,26.75,0,0,0,3.83-2.58l5.08,6.2A34.8,34.8,0,0,1,110.81,210.69Zm5.6-3.82-5.09-6.21a26.38,26.38,0,0,0,3.29-3.31l6.22,5.1c-.41.5-.85,1-1.29,1.45a1.79,1.79,0,0,0-.25.23.71.71,0,0,0-.1.14l-.47.49C118,205.5,117.21,206.2,116.41,206.87Z"/><path class="cls-7" d="M442.31,208.65l-.05-.43-16.84-6.95v-.78l-9.71-2.65-13-2-2.35-7.92L400,188l2,7.69-2.17-.33.07,1.65a3.71,3.71,0,0,0-1.08,2.79,12.46,12.46,0,0,0,.51,1.56c-.2.09-.2.58,0,1.1s.54.91.75.83h0c1,2.54,2.47,6,3.71,8.86a52.42,52.42,0,0,0-5.92.65c-.68.13-1.3.26-1.85.41a9.57,9.57,0,0,0-1.1.35,4.33,4.33,0,0,0-1.2.62,1.79,1.79,0,0,0-.38.4,1.15,1.15,0,0,0-.12.25.92.92,0,0,0,0,.29h2.41l1.48,5.54H395v.95H449.4v-13Zm-38.75,6.5-1.37,5.14-1.38-5.14Zm-4.61,0-1.37,5.14-1.38-5.14Zm.59,0h.68l1.48,5.54h-3.64Zm3.13,5.54,1.49-5.54h.93l.94,2.16v3.38Z"/><path class="cls-7" d="M386.71,221.64V215.1h2.34a6.46,6.46,0,0,0-.35-2.09,7.92,7.92,0,0,0-.92-1.81,12.69,12.69,0,0,0-2.95-3,33.27,33.27,0,0,0-8.42-4.35,77.54,77.54,0,0,0-10.2-2.94v-3.31h-6.33V181.65h-6.74V197h-2.46v1.44c-5.63-.56-11.65-.87-17.92-.87v2.63h.38l1.1,3.26c-4.7-.22-9.69-.25-14.86,0v-.14l-10.81-2.05v10.67l-4.15.63,2.21,9.09Z"/><path class="cls-6" d="M209.43,138.38v-.21h-1.37v3.48h1.55l1.29,16.64h0v3.77h-1.34v-3.77h-8.35v3.77h-1.34v-3.77l1.29-16.64h1.55v-3.48h-1.37v.21c-3.2,5.42-5.42,17.06-5.42,30.55v52.71h18.93V168.93C214.85,155.44,212.63,143.8,209.43,138.38Z"/><path class="cls-7" d="M223.23,168.88v-.45h-1.09v-1.07h.31V167h-.2l-1.92-2.49h0v-.21h-.09V163.2h.07V163l-.41-1h0v-.8h-.14v.8h0l-.4,1v.22h.06v1.05h-.08v.21h0L217.46,167h-.2v.41h.31v1.07h-1.1v.45h.16v1.73h-5.7v-1.73h.16v-.45H210v-1.07h.31V167h-.2l-1.93-2.49h0v-.21h-.09V163.2h.06V163l-.4-1h0v-.8h-.14v.8h0l-.4,1v.22h.06v1.05h-.09v.21h0L205.31,167h-.2v.41h.31v1.07h-1.09v.45h.16v4.68h-.16V174h.16v5.68h-.16v.44h.16v7.82h-.16v.45h.16v12h-.16v.44h.16v20.86h18.59V200.78h.15v-.44h-.15v-12h.15v-.45h-.15v-7.82h.15v-.44h-.15V174h.15v-.44h-.15v-4.68Zm-15.36-4.82c0,.05-.07.09-.16.09s-.16,0-.16-.09v-.72c0-.05.07-.1.16-.1s.16,0,.16.1Zm12.14,0c0,.05-.07.09-.16.09s-.16,0-.16-.09v-.72c0-.05.07-.1.16-.1s.16,0,.16.1Z"/><path class="cls-7" d="M246.38,168.88v-.45h-1.09v-1.07h.3V167h-.2l-1.92-2.49h0v-.21h-.09V163.2h.06V163l-.4-1h0v-.8h-.14v.8h0l-.4,1v.22h.06v1.05h-.09v.21h0L240.6,167h-.2v.41h.31v1.07h-1.09v.45h.16v1.73h-5.7v-1.73h.16v-.45h-1.1v-1.07h.31V167h-.2l-1.92-2.49h0v-.21h-.08V163.2h.06V163l-.4-1h0v-.8h-.14v.8h0l-.41,1v.22h.06v1.05h-.08v.21h0L228.46,167h-.2v.41h.31v1.07h-1.09v.45h.15v4.68h-.15V174h.15v5.68h-.15v.44h.15v7.82h-.15v.45h.15v12h-.15v.44h.15v20.86h18.59V200.78h.16v-.44h-.16v-12h.16v-.45h-.16v-7.82h.16v-.44h-.16V174h.16v-.44h-.16v-4.68ZM231,164.06c0,.05-.07.09-.16.09s-.16,0-.16-.09v-.72c0-.05.07-.1.16-.1s.16,0,.16.1Zm12.14,0c0,.05-.07.09-.16.09s-.16,0-.16-.09v-.72c0-.05.07-.1.16-.1s.16,0,.16.1Z"/><path class="cls-7" d="M538,206.44v-1h-3.85v-.89h-1.39v-.51h-1v-.37H531v-.79h-1.67v.79h-.79v.37h-.95v.51h-1.39v.89h-1.85v-4.18H525V200h-.89v-1h-2.55v1h-.69v-1h-2.55v1h-.69v-1H515.1v1h-.7v-1h-2.55v1h-.69v-1h-2.55v1h-.89v1.25h.68v4.18h-1.73V194.89h-1.31v-1h-.72v-4.5h.72v-1h1v-.84h.69v-1.26h-.57a9.16,9.16,0,0,0-6-8v-.82c0-.47-.58-.89-1.47-1.15v-3.82h.3v-.37h.17v-.35h-.07a2.48,2.48,0,0,0-2-2.3v-.93a1.06,1.06,0,0,0-.1-.45.61.61,0,0,0,.07-.28.53.53,0,0,0-.06-.26.36.36,0,0,0,.13-.3.38.38,0,0,0,0-.19.24.24,0,0,0,0-.15.33.33,0,0,0,0-.15.47.47,0,0,0,.06-.21.39.39,0,0,0-.11-.27v0a.58.58,0,0,0-.22-.48.37.37,0,0,0-.09-.24v-.27a.4.4,0,0,0-.11-.28v-.31c0-.09-.06-.17-.13-.17s-.13.08-.13.17v.31a.4.4,0,0,0-.11.28v.23a.06.06,0,0,0,0,0,.38.38,0,0,0-.1.24.58.58,0,0,0-.21.48v0a.39.39,0,0,0-.11.27.47.47,0,0,0,.06.21.3.3,0,0,0,0,.3.53.53,0,0,0,0,.19.36.36,0,0,0,.14.3.44.44,0,0,0-.07.26.61.61,0,0,0,.07.28,1.06,1.06,0,0,0-.1.45v.93a2.49,2.49,0,0,0-2,2.3h-.07v.35h.17v.37h.3v3.82c-.89.26-1.47.68-1.47,1.15v.82a9.16,9.16,0,0,0-6,8h-.57v1.26h.69v.84h1v1h.72v4.5h-.72v1h-1.31v10.56H485.4v-4.18h.68V200h-.89v-1h-2.54v1H482v-1H479.4v1h-.7v-1h-2.55v1h-.69v-1h-2.55v1h-.7v-1h-2.55v1h-.88v1.25h.68v4.18h-1.85v-.89h-1.39v-.51h-1v-.37h-.79v-.79h-1.67v.79H462v.37h-.95v.51h-1.39v.89h-3.85v1h1v8.28h-1v1h1v4.94h-1v1H538v-1h-1v-4.94h1v-1h-1v-8.28Z"/><polygon class="cls-6" points="185.71 164.93 185.71 160.46 183.35 160.46 183.35 157.75 181.63 157.75 181.63 157.08 181.05 157.08 181.05 156.56 180.46 156.56 180.46 156.04 179.89 156.04 179.89 155.53 179.3 155.53 179.3 155.01 178.72 155.01 178.72 154.49 178.13 154.49 178.13 153.97 177.55 153.97 177.55 153.45 176.97 153.45 176.97 152.93 176.38 152.93 176.38 152.41 175.81 152.41 175.81 151.89 175.22 151.89 175.22 151.37 174.63 151.37 174.63 150.86 169.93 150.86 169.93 151.37 169.33 151.37 169.33 151.89 168.75 151.89 168.75 152.41 168.17 152.41 168.17 152.93 167.58 152.93 167.58 153.45 167 153.45 167 153.97 166.42 153.97 166.42 154.49 165.83 154.49 165.83 155.01 165.25 155.01 165.25 155.53 164.66 155.53 164.66 156.04 164.09 156.04 164.09 156.56 163.5 156.56 163.5 157.08 162.92 157.08 162.92 157.75 161.2 157.75 161.2 160.46 158.84 160.46 158.84 164.93 154.41 164.93 154.41 221.64 190.14 221.64 190.14 164.93 185.71 164.93"/><path class="cls-7" d="M75.55,175.28h.65l-4.69-5.87-4.7,5.87h.66v3.8H66.09a5.07,5.07,0,0,0-4-1.48,5.09,5.09,0,0,0-4,1.48H57.07v-2.8h.73l-1-1.35h-7l-1,1.35h.73v2.8h-.65v42.56H76V179.08h-.43Z"/><polygon class="cls-7" points="159.5 200.78 159.5 198.28 154.16 198.28 154.16 196.01 148.91 196.01 148.91 193.59 145.76 193.59 145.76 191.89 137.43 191.89 137.43 196.01 129.67 196.01 129.67 193.59 125.95 193.59 125.95 191.89 118.43 191.89 118.43 196.01 115.27 196.01 115.27 194.88 113.17 194.88 113.17 196.01 110.42 196.01 110.42 198.28 108.24 198.28 108.24 200.78 106.86 200.78 106.86 221.64 160.31 221.64 160.31 200.78 159.5 200.78"/><polygon class="cls-7" points="180.16 201.51 180.16 198.2 176.44 198.2 176.44 196.98 174.18 196.98 174.18 198.2 172.72 198.2 172.72 199.81 167.79 199.81 167.79 201.51 166.66 201.51 166.66 221.64 191.4 221.64 191.4 201.51 180.16 201.51"/><path class="cls-7" d="M44.73,221.64H9.35l-.13-.18A3.27,3.27,0,0,1,8.4,218a5,5,0,0,1,4.54-3.65l.28,0a7,7,0,0,1,4-.07,1.78,1.78,0,0,1,1.21.88,1.86,1.86,0,0,1,1.17-.88,4.29,4.29,0,0,1,2.33,0,3.52,3.52,0,0,1,.39.16,3.17,3.17,0,0,1,2.74-1.55,3.86,3.86,0,0,1,3.86,0,1.89,1.89,0,0,1,.9,1.13,3,3,0,0,1,1.07.62,2.57,2.57,0,0,1,.57.74,2,2,0,0,1,.25,1.1,3.91,3.91,0,0,1,.76-.69,3.08,3.08,0,0,1,1.24-.47,3.91,3.91,0,0,1,.51-1.68A3,3,0,0,1,37,212.26a2,2,0,0,1,1.93,1.62,5,5,0,0,1,2.6.5,2.94,2.94,0,0,1,1.68,2.39A3.41,3.41,0,0,1,45,218a3,3,0,0,1,.09,3.15A2.06,2.06,0,0,1,44.73,221.64Z"/><path class="cls-7" d="M103,221.64h33.14c0-.06.08-.11.12-.18a3.28,3.28,0,0,0,.77-3.39c-.55-1.81-2.2-3.58-4.25-3.56a1.86,1.86,0,0,0-.26,0,6.33,6.33,0,0,0-3.78-.08,1.64,1.64,0,0,0-1.13.86,1.78,1.78,0,0,0-1.1-.86,3.85,3.85,0,0,0-2.18,0,2.39,2.39,0,0,0-.37.15,3.21,3.21,0,0,0-2.14-1.48,3,3,0,0,0-.43,0,3.45,3.45,0,0,0-3.61,0,1.8,1.8,0,0,0-.84,1.1,2.91,2.91,0,0,0-1,.6,2.37,2.37,0,0,0-.52.73,1.78,1.78,0,0,0-.24,1.07,3.8,3.8,0,0,0-.71-.67,2.89,2.89,0,0,0-1.16-.46,3.85,3.85,0,0,0-.49-1.64,2.78,2.78,0,0,0-2.58-1.31,1.84,1.84,0,0,0-1.8,1.58,4.38,4.38,0,0,0-2.44.48,2.87,2.87,0,0,0-1.58,2.33,3.15,3.15,0,0,0-1.61,1.23,3.09,3.09,0,0,0-.1,3.07A2.52,2.52,0,0,0,103,221.64Z"/><path class="cls-7" d="M107.06,221.64H76.32l-.12-.16a3.06,3.06,0,0,1-.71-3.15,4.45,4.45,0,0,1,4-3.31l.24,0a5.8,5.8,0,0,1,3.5-.07,1.51,1.51,0,0,1,1,.8,1.65,1.65,0,0,1,1-.8,3.69,3.69,0,0,1,2,0l.34.14a3,3,0,0,1,2-1.37,2.68,2.68,0,0,1,.4,0,3.2,3.2,0,0,1,3.35,0,1.71,1.71,0,0,1,.78,1,2.7,2.7,0,0,1,.94.57,2.37,2.37,0,0,1,.49.67,1.94,1.94,0,0,1,.22,1,3.58,3.58,0,0,1,.66-.62,2.53,2.53,0,0,1,1.07-.42,3.72,3.72,0,0,1,.45-1.52,2.58,2.58,0,0,1,2.39-1.23,1.73,1.73,0,0,1,1.68,1.47,4.18,4.18,0,0,1,2.26.44,2.65,2.65,0,0,1,1.46,2.17,3,3,0,0,1,1.5,1.14,2.85,2.85,0,0,1,.09,2.85A1.81,1.81,0,0,1,107.06,221.64Z"/><path class="cls-7" d="M78.54,221.64a1.67,1.67,0,0,0,.14-.71,3.37,3.37,0,0,0-.94-2.33,4.45,4.45,0,0,0-5.13-3.25,3.14,3.14,0,0,0-1.38-.79,2.78,2.78,0,0,0-1.94.24A2.39,2.39,0,0,0,68.23,216c-1.39-1.47-3.47-2.47-5.31-1.74a4.91,4.91,0,0,0-3.31-.49,3,3,0,0,0-2,2.56,4.12,4.12,0,0,0-3.19,1.18,8,8,0,0,0-1.14-.56,3.87,3.87,0,0,0-1.58-2.62,3.2,3.2,0,0,0-3.17,0,2.48,2.48,0,0,0-.26-.19,2.89,2.89,0,0,0-3.19.05,3.25,3.25,0,0,0-1.18,3.43,1.53,1.53,0,0,0-.71.69,3.29,3.29,0,0,0,0,3.31Z"/><path class="cls-7" d="M518.26,221.64h37.61a1.43,1.43,0,0,0,.14-.2,3.73,3.73,0,0,0,.88-3.85c-.63-2.06-2.5-4.07-4.83-4.05l-.3,0a7.18,7.18,0,0,0-4.28-.08,1.86,1.86,0,0,0-1.29,1,2,2,0,0,0-1.25-1,4.42,4.42,0,0,0-2.47,0,4.08,4.08,0,0,0-.42.17,3.65,3.65,0,0,0-2.43-1.67,2.67,2.67,0,0,0-.48,0,4,4,0,0,0-4.11,0,2.07,2.07,0,0,0-.95,1.25,3.46,3.46,0,0,0-1.15.68,3.06,3.06,0,0,0-.59.83,2.09,2.09,0,0,0-.27,1.21,4.57,4.57,0,0,0-.81-.76,3,3,0,0,0-1.31-.51,4.37,4.37,0,0,0-.56-1.86,3.13,3.13,0,0,0-2.92-1.5,2.11,2.11,0,0,0-2.05,1.79,5.1,5.1,0,0,0-2.77.55,3.26,3.26,0,0,0-1.79,2.65,3.38,3.38,0,0,0-1.94,4.88A2.27,2.27,0,0,0,518.26,221.64Z"/><path class="cls-7" d="M256,221.64H221.55l-.13-.18a3.41,3.41,0,0,1-.8-3.53c.57-1.88,2.29-3.73,4.42-3.71a2.23,2.23,0,0,1,.27,0,6.58,6.58,0,0,1,3.93-.08,1.75,1.75,0,0,1,1.18.9,1.83,1.83,0,0,1,1.14-.9,4.08,4.08,0,0,1,2.27,0c.13,0,.26.1.38.15a3.3,3.3,0,0,1,2.23-1.53,2.17,2.17,0,0,1,.44,0,3.61,3.61,0,0,1,3.76,0,1.9,1.9,0,0,1,.87,1.15,2.92,2.92,0,0,1,1.05.63,2.55,2.55,0,0,1,.55.75,2.1,2.1,0,0,1,.25,1.11,3.78,3.78,0,0,1,.74-.69,2.84,2.84,0,0,1,1.2-.48,4,4,0,0,1,.51-1.7,2.88,2.88,0,0,1,2.68-1.37,1.94,1.94,0,0,1,1.88,1.64,4.7,4.7,0,0,1,2.53.5,3,3,0,0,1,1.64,2.43,3.26,3.26,0,0,1,1.68,1.28,3.19,3.19,0,0,1,.1,3.19A2.73,2.73,0,0,1,256,221.64Z"/><path class="cls-7" d="M195.78,221.64a1.61,1.61,0,0,0,.14-.73,3.4,3.4,0,0,0-1-2.4,4.58,4.58,0,0,0-5.29-3.34,3.2,3.2,0,0,0-1.42-.83,2.9,2.9,0,0,0-2,.26,2.45,2.45,0,0,0-1.1,1.21c-1.42-1.52-3.56-2.55-5.46-1.8a5.08,5.08,0,0,0-3.41-.5,3.08,3.08,0,0,0-2.1,2.64,4.22,4.22,0,0,0-3.28,1.22,7.18,7.18,0,0,0-1.18-.58,4,4,0,0,0-1.62-2.71,3.32,3.32,0,0,0-3.27,0,2.48,2.48,0,0,0-.26-.19,3,3,0,0,0-3.29,0,3.37,3.37,0,0,0-1.22,3.54,1.67,1.67,0,0,0-.73.71,3.38,3.38,0,0,0-.05,3.41Z"/><path class="cls-7" d="M469.28,221.64H426.44l-.16-.13a1.77,1.77,0,0,1-1-2.49c.71-1.34,2.84-2.64,5.5-2.63l.33,0a14,14,0,0,1,4.88,0,2.4,2.4,0,0,1,1.47.63,2.47,2.47,0,0,1,1.42-.63,8.89,8.89,0,0,1,2.82,0l.48.11a4.82,4.82,0,0,1,2.76-1.09,5.06,5.06,0,0,1,.55,0,7.45,7.45,0,0,1,4.67,0,1.79,1.79,0,0,1,1.09.81,4.87,4.87,0,0,1,1.3.45,2.06,2.06,0,0,1,.68.53,1,1,0,0,1,.31.78,6,6,0,0,1,.92-.49,5.35,5.35,0,0,1,1.5-.33,2.08,2.08,0,0,1,.62-1.21,4.83,4.83,0,0,1,3.34-1c1.19.06,2.2.49,2.33,1.16a9.9,9.9,0,0,1,3.16.36c1.27.37,1.91,1,2,1.71a4.64,4.64,0,0,1,2.09.91,1.48,1.48,0,0,1,.12,2.26A2.43,2.43,0,0,1,469.28,221.64Z"/><path class="cls-7" d="M304.52,221.64a2.14,2.14,0,0,0,.17-.84,4,4,0,0,0-1.11-2.74c-.42-2.56-3.54-4.41-6.06-3.83a3.63,3.63,0,0,0-1.62-.94,3.26,3.26,0,0,0-2.29.29,2.74,2.74,0,0,0-1.25,1.39c-1.63-1.74-4.08-2.92-6.25-2.06a5.87,5.87,0,0,0-3.91-.58,3.52,3.52,0,0,0-2.4,3,4.78,4.78,0,0,0-3.75,1.39,10,10,0,0,0-1.35-.67,4.6,4.6,0,0,0-1.86-3.09,3.81,3.81,0,0,0-3.74,0l-.31-.22a3.4,3.4,0,0,0-3.76.05,3.85,3.85,0,0,0-1.39,4,1.88,1.88,0,0,0-.84.81,3.93,3.93,0,0,0-.06,3.91Z"/><rect class="cls-7" y="221.46" width="566.93" height="11.34"/></g></g></g></svg>
