<svg width="29" height="29" viewBox="0 0 29 29" fill="none" xmlns="http://www.w3.org/2000/svg">
<rect width="28.8" height="28.8" fill="white"/>
<path d="M2.40002 14.5824C2.40002 19.428 5.3383 23.6161 9.60002 25.6001L3.5062 9.6001C2.79742 11.1225 2.40002 12.8075 2.40002 14.5824Z" fill="#3E3D3A"/>
<path d="M22.3974 14.164C22.3974 12.6324 21.8566 11.5724 21.3933 10.7473C20.776 9.72627 20.1969 8.8626 20.1969 7.84159C20.1969 6.70291 21.0458 5.64283 22.2422 5.64283C22.2962 5.64283 22.3474 5.64939 22.4 5.65275C20.2332 3.63319 17.3464 2.40002 14.1757 2.40002C9.92071 2.40002 6.17769 4.62095 4 7.98405C4.28597 7.99339 4.55532 7.99907 4.78381 7.99907C6.05743 7.99907 8.0297 7.84159 8.0297 7.84159C8.68594 7.80251 8.76348 8.78356 8.10768 8.8626C8.10768 8.8626 7.44758 8.94105 6.7138 8.98027L11.1486 22.4L13.8142 14.2689L11.9169 8.98027C11.2607 8.94105 10.6394 8.8626 10.6394 8.8626C9.98306 8.82308 10.06 7.80251 10.7167 7.84159C10.7167 7.84159 12.7277 7.99907 13.9243 7.99907C15.1977 7.99907 17.1704 7.84159 17.1704 7.84159C17.8269 7.80251 17.9043 8.78356 17.2481 8.8626C17.2481 8.8626 16.5874 8.94105 15.8543 8.98027L20.2557 22.2978L21.4707 18.169C21.9965 16.4547 22.3974 15.2243 22.3974 14.164Z" fill="#3E3D3A"/>
<path d="M14.7153 15.2L11.2 25.8999C12.2498 26.2233 13.3598 26.4 14.5096 26.4C15.8738 26.4 17.1823 26.1532 18.4 25.7043C18.3688 25.6516 18.3397 25.5958 18.316 25.5351L14.7153 15.2Z" fill="#3E3D3A"/>
<path d="M25.6236 8.80005C25.6789 9.19814 25.7101 9.62521 25.7101 10.0854C25.7101 11.3532 25.4656 12.779 24.7313 14.5622L20.8 25.6C24.6266 23.4335 27.2 19.4076 27.2 14.7964C27.2 12.6232 26.6283 10.5803 25.6236 8.80005Z" fill="#3E3D3A"/>
<path fill-rule="evenodd" clip-rule="evenodd" d="M0 14.3996C0 6.45955 6.45966 0 14.3999 0C22.34 0 28.8 6.45955 28.8 14.3996C28.8 22.3402 22.34 28.8 14.3999 28.8C6.45966 28.8 0 22.3402 0 14.3996ZM0.660374 14.3996C0.660374 21.9757 6.82401 28.1398 14.3999 28.1398C21.9757 28.1398 28.1395 21.9757 28.1395 14.3996C28.1395 6.82376 21.9757 0.660378 14.3999 0.660378C6.82401 0.660378 0.660374 6.82376 0.660374 14.3996Z" fill="#3E3D3A"/>
</svg>
