<svg width="24" height="24" viewBox="0 0 24 24" fill="none" xmlns="http://www.w3.org/2000/svg">
<path d="M7.5 5.25H5.25C4.83579 5.25 4.5 5.58579 4.5 6V18C4.5 18.4142 4.83579 18.75 5.25 18.75H7.5C7.91421 18.75 8.25 18.4142 8.25 18V6C8.25 5.58579 7.91421 5.25 7.5 5.25Z" stroke="#FF3B00" stroke-width="1.5" stroke-linecap="round" stroke-linejoin="round"/>
<path d="M18.75 5.25H16.5C16.0858 5.25 15.75 5.58579 15.75 6V18C15.75 18.4142 16.0858 18.75 16.5 18.75H18.75C19.1642 18.75 19.5 18.4142 19.5 18V6C19.5 5.58579 19.1642 5.25 18.75 5.25Z" stroke="#FF3B00" stroke-width="1.5" stroke-linecap="round" stroke-linejoin="round"/>
<path d="M19.5 7.5H21.75C21.9489 7.5 22.1397 7.57902 22.2803 7.71967C22.421 7.86032 22.5 8.05109 22.5 8.25V15.75C22.5 15.9489 22.421 16.1397 22.2803 16.2803C22.1397 16.421 21.9489 16.5 21.75 16.5H19.5" stroke="#FF3B00" stroke-width="1.5" stroke-linecap="round" stroke-linejoin="round"/>
<path d="M4.5 16.5H2.25C2.05109 16.5 1.86032 16.421 1.71967 16.2803C1.57902 16.1397 1.5 15.9489 1.5 15.75V8.25C1.5 8.05109 1.57902 7.86032 1.71967 7.71967C1.86032 7.57902 2.05109 7.5 2.25 7.5H4.5" stroke="#FF3B00" stroke-width="1.5" stroke-linecap="round" stroke-linejoin="round"/>
<path d="M8.25 12H15.75" stroke="#FF3B00" stroke-width="1.5" stroke-linecap="round" stroke-linejoin="round"/>
</svg>
